<svg width="50" height="50" viewBox="0 0 50 50" fill="none" xmlns="http://www.w3.org/2000/svg">
<path d="M14.5834 45.8333H8.33335C7.22828 45.8333 6.16848 45.3943 5.38708 44.6129C4.60567 43.8315 4.16669 42.7717 4.16669 41.6666V27.0833C4.16669 25.9782 4.60567 24.9184 5.38708 24.137C6.16848 23.3556 7.22828 22.9166 8.33335 22.9166H14.5834M29.1667 18.75V10.4166C29.1667 8.75902 28.5082 7.16931 27.3361 5.99721C26.164 4.82511 24.5743 4.16663 22.9167 4.16663L14.5834 22.9166V45.8333H38.0834C39.0882 45.8447 40.0633 45.4925 40.829 44.8416C41.5947 44.1908 42.0993 43.2852 42.25 42.2916L45.125 23.5416C45.2157 22.9445 45.1754 22.3347 45.007 21.7546C44.8386 21.1746 44.5461 20.6381 44.1497 20.1823C43.7534 19.7265 43.2627 19.3623 42.7116 19.115C42.1606 18.8677 41.5623 18.7431 40.9584 18.75H29.1667Z" stroke="#3F37C9" stroke-width="2" stroke-linecap="round" stroke-linejoin="round"/>
</svg>
