<svg width="50" height="50" viewBox="0 0 50 50" fill="none" xmlns="http://www.w3.org/2000/svg">
<path d="M35.4167 4.16665H40.9792C42.1583 4.14579 43.304 4.55859 44.1988 5.32669C45.0936 6.09478 45.6753 7.16469 45.8333 8.33331V22.9166C45.6753 24.0853 45.0936 25.1552 44.1988 25.9233C43.304 26.6914 42.1583 27.1042 40.9792 27.0833H35.4167M20.8333 31.25V39.5833C20.8333 41.2409 21.4918 42.8306 22.6639 44.0027C23.836 45.1748 25.4257 45.8333 27.0833 45.8333L35.4167 27.0833V4.16665H11.9167C10.9118 4.15529 9.93672 4.50747 9.17103 5.1583C8.40535 5.80913 7.90068 6.71476 7.75 7.70831L4.875 26.4583C4.78436 27.0555 4.82464 27.6652 4.99304 28.2453C5.16145 28.8254 5.45396 29.3619 5.8503 29.8177C6.24664 30.2735 6.73734 30.6376 7.28839 30.8849C7.83945 31.1323 8.43769 31.2568 9.04167 31.25H20.8333Z" stroke="#3A0CA3" stroke-width="2" stroke-linecap="round" stroke-linejoin="round"/>
</svg>
